<?xml version="1.0" encoding="utf-8"?>
<!-- Generator: Adobe Illustrator 24.1.0, SVG Export Plug-In . SVG Version: 6.00 Build 0)  -->
<svg version="1.1" id="Laag_1" xmlns="http://www.w3.org/2000/svg" xmlns:xlink="http://www.w3.org/1999/xlink" x="0px" y="0px"
	 viewBox="0 0 1268.74 704.93" style="enable-background:new 0 0 1268.74 704.93;" xml:space="preserve">
<style type="text/css">
	.st0{fill:#FFFFFF;}
	.st1{fill:#00205C;}
	.st2{opacity:0.3;}
	.st3{fill:none;}
</style>
<path class="st0" d="M1279.68,13.44C989.39,271.68,365.27,193.83,100.25,145.91c-39.02-7.05-78.87-16.4-112.11-24.91l-2.45,422.62
	l1293.99,0V13.44z"/>
<path class="st1" d="M1279.68,13.44C989.39,271.68,365.27,193.83,100.25,145.91c-39.02-7.05-78.87-16.4-112.11-24.91l-2.45,540.11
	l1293.99,0V13.44z"/>
<g class="st2">
	<path class="st3" d="M-9.68,121.56l0.26-18.94c33.17,8.79,72.93,18.49,111.89,25.88c272.33,51.7,924.85,138.44,1205.39-145.51
		l38.36,1.17v-1.17H-14.31v383.83h0.69L-11.86,121C-11.14,121.19-10.4,121.37-9.68,121.56z"/>
	<path class="st1" d="M102.48,128.5c-38.96-7.4-78.72-17.09-111.89-25.88l-0.26,18.94c32.8,8.35,71.75,17.45,109.93,24.35
		c265.01,47.92,889.14,125.77,1179.43-132.47l28.18-30.45C1027.32,266.94,374.81,180.2,102.48,128.5z"/>
</g>
</svg>
